<?xml version="1.0" standalone="no"?>
<!DOCTYPE svg PUBLIC "-//W3C//DTD SVG 1.1//EN" "http://www.w3.org/Graphics/SVG/1.1/DTD/svg11.dtd" >
<svg xmlns="http://www.w3.org/2000/svg">
<metadata></metadata>
<defs>
<font id="montserratblack" horiz-adv-x="1413" >
<font-face units-per-em="2048" ascent="1638" descent="-410" />
<missing-glyph horiz-adv-x="428" />
<glyph unicode="&#xfb01;" horiz-adv-x="1558" d="M41 788v291h154v80q0 175 126 278.5t338 102.5q134 0 228 -33l-15 -362q-55 39 -112 39q-49 1 -78 -24.5t-29 -69.5v-11h217v-291h-217v-788h-458v788h-154zM983 1440q0 103 65.5 168t168.5 65t168 -65t65 -168t-65 -168.5t-168 -65.5t-168.5 65.5t-65.5 168.5zM985 0 v1120h461v-1120h-461z" />
<glyph unicode="&#xfb02;" horiz-adv-x="1579" d="M41 788v291h154v80q0 175 126 278.5t338 102.5q134 0 228 -33l-15 -362q-55 39 -112 39q-49 1 -78 -24.5t-29 -69.5v-11h217v-291h-217v-788h-458v788h-154zM995 0v1520h461v-1520h-461z" />
<glyph horiz-adv-x="0" />
<glyph horiz-adv-x="682" />
<glyph unicode=" "  horiz-adv-x="428" />
<glyph unicode="&#x09;" horiz-adv-x="428" />
<glyph unicode="&#xa0;" horiz-adv-x="428" />
<glyph unicode="!" horiz-adv-x="602" d="M82 195q0 92 58.5 150t150.5 58q94 0 152.5 -58t58.5 -150q0 -94 -58.5 -152.5t-152.5 -58.5q-92 0 -150.5 58.5t-58.5 152.5zM82 1059v377h438v-377l-82 -531h-274z" />
<glyph unicode="&#x22;" horiz-adv-x="1042" d="M123 817v619h344v-619h-344zM575 817v619h345v-619h-345z" />
<glyph unicode="#" horiz-adv-x="1525" d="M8 283l39 313h266l29 225h-264l37 314h266l37 301h327l-36 -301h215l37 301h327l-37 -301h267l-37 -314h-269l-28 -225h266l-39 -313h-266l-35 -283h-328l35 283h-215l-35 -283h-327l34 283h-266zM641 596h215l29 225h-215z" />
<glyph unicode="$" horiz-adv-x="1359" d="M16 215l177 356q109 -91 272.5 -157t273.5 -66q115 0 115 74q0 33 -32 57.5t-84 38.5t-119 32t-136.5 36t-136.5 51.5t-119 76.5t-84 114t-32 161q0 166 102 281t285 160v339h340v-319q141 -12 275.5 -55.5t236.5 -108.5l-172 -360q-119 66 -262.5 117t-231.5 51t-88 -60 q0 -28 25.5 -50t68.5 -37t98.5 -29.5t117 -32t123.5 -39.5t117.5 -57t98.5 -79.5t68.5 -112.5t25.5 -151q0 -104 -38.5 -187t-107.5 -137.5t-158.5 -87.5t-196.5 -44v-328h-340v348q-283 53 -482 205z" />
<glyph unicode="%" horiz-adv-x="2187" d="M51 1006q0 199 114.5 318.5t305.5 119.5q190 0 304 -119t114 -319q0 -201 -114 -322t-304 -121q-191 0 -305.5 121t-114.5 322zM340 1006q0 -91 35.5 -145t95.5 -54t95.5 54t35.5 145q0 89 -35.5 142.5t-95.5 53.5t-95.5 -53.5t-35.5 -142.5zM381 0l997 1436h428 l-997 -1436h-428zM1298 432q0 199 114.5 318.5t305.5 119.5q190 0 304 -119t114 -319q0 -201 -114 -321.5t-304 -120.5q-191 0 -305.5 120.5t-114.5 321.5zM1587 432q0 -91 35.5 -145t95.5 -54t95.5 54t35.5 145q0 89 -35.5 143t-95.5 54t-95.5 -54t-35.5 -143z" />
<glyph unicode="&#x26;" horiz-adv-x="1445" d="M109 410q0 66 20 123t59 102t82 79t101 68q-57 85 -81 158t-24 150q0 170 119.5 268t323.5 98q198 0 325 -95.5t127 -246.5q0 -73 -26 -134t-76 -108.5t-100.5 -81t-122.5 -69.5q75 -82 153 -160q48 92 72 201l289 -207q-40 -120 -115 -231l197 -183l-232 -223l-186 178 q-176 -116 -383 -116q-228 0 -375 120.5t-147 309.5zM483 444q0 -67 46.5 -107t119.5 -40q63 0 127 31q-126 126 -227 235q-66 -56 -66 -119zM623 1092q0 -77 47 -156q133 80 133 174q0 41 -25 66.5t-65 25.5q-42 0 -66 -30t-24 -80z" />
<glyph unicode="'" horiz-adv-x="589" d="M123 817v619h344v-619h-344z" />
<glyph unicode="(" horiz-adv-x="757" d="M96 633q0 246 70.5 474t202.5 413h411q-117 -192 -184.5 -420.5t-67.5 -466.5t67.5 -466.5t184.5 -420.5h-411q-132 185 -202.5 413t-70.5 474z" />
<glyph unicode=")" horiz-adv-x="757" d="M-23 -254q117 192 184.5 420.5t67.5 466.5t-67.5 466.5t-184.5 420.5h412q132 -185 202.5 -413t70.5 -474t-70.5 -474t-202.5 -413h-412z" />
<glyph unicode="*" horiz-adv-x="831" d="M41 1016l160 88l-160 84l113 198l153 -96l-4 180h225l-4 -180l154 92l113 -194l-162 -84l162 -88l-113 -197l-156 96l6 -180h-225l6 183l-155 -95z" />
<glyph unicode="+" horiz-adv-x="1064" d="M61 530v287h328v328h287v-328h328v-287h-328v-327h-287v327h-328z" />
<glyph unicode="," horiz-adv-x="542" d="M37 -225l106 260q-80 54 -80 160q0 92 59 150t152 58q88 0 148.5 -54.5t60.5 -151.5q0 -86 -55 -164l-178 -258h-213z" />
<glyph unicode="-" horiz-adv-x="778" d="M102 489v287h574v-287h-574z" />
<glyph unicode="." horiz-adv-x="542" d="M61 195q0 92 58.5 150t150.5 58q94 0 152.5 -58t58.5 -150q0 -94 -58.5 -152.5t-152.5 -58.5q-92 0 -150.5 58.5t-58.5 152.5z" />
<glyph unicode="/" horiz-adv-x="763" d="M-102 -213l673 1864h385l-673 -1864h-385z" />
<glyph unicode="0" horiz-adv-x="1460" d="M72 719q0 354 170 542.5t489 188.5q317 0 487.5 -189t170.5 -542t-170.5 -543t-487.5 -190q-319 0 -489 189.5t-170 543.5zM559 719q0 -218 37.5 -303.5t134.5 -85.5q95 0 132.5 85.5t37.5 303.5t-37.5 302.5t-132.5 84.5q-97 0 -134.5 -84.5t-37.5 -302.5z" />
<glyph unicode="1" horiz-adv-x="890" d="M4 1061v375h725v-1436h-475v1061h-250z" />
<glyph unicode="2" horiz-adv-x="1249" d="M23 1231q327 225 639 225q147 0 264.5 -48t185.5 -137.5t68 -203.5q0 -116 -72.5 -233.5t-206.5 -251.5l-217 -217h516v-365h-1120v297l498 518q104 111 104 182q0 76 -94 76q-163 0 -389 -184z" />
<glyph unicode="3" horiz-adv-x="1177" d="M-14 170l188 360q164 -200 352 -200q148 0 148 125t-148 125h-260v247l273 260h-478v345h1012v-267l-309 -297l61 -14q141 -34 227.5 -137.5t86.5 -259.5q0 -212 -157.5 -344.5t-416.5 -132.5q-161 0 -317.5 51.5t-261.5 138.5z" />
<glyph unicode="4" horiz-adv-x="1359" d="M51 276v312l420 848h453l-392 -820h195v275h440v-275h183v-340h-183v-276h-440v276h-676z" />
<glyph unicode="5" horiz-adv-x="1251" d="M6 170l189 360q153 -200 346 -200q153 0 153 127q0 116 -153 116h-404v863h1002v-365h-568v-151h64q260 0 415.5 -117.5t155.5 -313.5q0 -232 -165.5 -370.5t-442.5 -138.5q-152 0 -312.5 51.5t-279.5 138.5z" />
<glyph unicode="6" horiz-adv-x="1327" d="M72 702q0 343 191.5 548.5t510.5 205.5q133 0 268 -34.5t228 -92.5l-180 -332q-118 95 -287 95q-279 0 -279 -240q110 106 297 106q210 0 337.5 -130.5t127.5 -342.5q0 -231 -154 -368t-409 -137q-303 0 -477 195t-174 527zM565 485q0 -129 142 -129q139 0 139 131 q0 127 -137 127q-144 0 -144 -129z" />
<glyph unicode="7" horiz-adv-x="1263" d="M59 870v566h1186v-318l-493 -1118h-502l473 1071h-246v-201h-418z" />
<glyph unicode="8" horiz-adv-x="1343" d="M51 399q0 115 69 215.5t185 153.5q-80 56 -128 138t-48 163q0 177 147.5 282t393.5 105q249 0 396.5 -109t147.5 -292q0 -82 -41 -159.5t-110 -127.5q105 -53 167 -150.5t62 -209.5q0 -195 -168.5 -311.5t-451.5 -116.5t-452 114t-169 305zM500 449q0 -130 172 -130 q174 0 174 130q0 133 -174 133q-172 0 -172 -133zM526 1030q0 -110 146 -110q145 0 145 110q0 117 -145 117q-146 0 -146 -117z" />
<glyph unicode="9" horiz-adv-x="1327" d="M41 950q0 231 154 368.5t409 137.5q303 0 477 -195.5t174 -527.5q0 -226 -86.5 -397t-245.5 -263.5t-370 -92.5q-133 0 -268 34t-228 92l181 332q116 -94 286 -94q279 0 279 240q-111 -107 -297 -107q-210 0 -337.5 130.5t-127.5 342.5zM481 948q0 -127 137 -127 q144 0 144 129t-141 129q-140 0 -140 -131z" />
<glyph unicode=":" horiz-adv-x="542" d="M61 195q0 92 58.5 150t150.5 58q94 0 152.5 -58t58.5 -150q0 -94 -58.5 -152.5t-152.5 -58.5q-92 0 -150.5 58.5t-58.5 152.5zM61 803q0 92 58.5 150.5t150.5 58.5q94 0 152.5 -58.5t58.5 -150.5q0 -94 -58.5 -152.5t-152.5 -58.5q-92 0 -150.5 58.5t-58.5 152.5z" />
<glyph unicode=";" horiz-adv-x="542" d="M37 -225l106 260q-80 54 -80 160q0 92 59 150t152 58q88 0 148.5 -54.5t60.5 -151.5q0 -86 -55 -164l-178 -258h-213zM61 803q0 92 58.5 150.5t150.5 58.5q94 0 152.5 -58.5t58.5 -150.5q0 -94 -58.5 -152.5t-152.5 -58.5q-92 0 -150.5 58.5t-58.5 152.5z" />
<glyph unicode="&#x3c;" horiz-adv-x="1064" d="M61 479v365l943 379v-320l-648 -241l648 -242v-320z" />
<glyph unicode="=" horiz-adv-x="1064" d="M61 305v287h943v-287h-943zM61 756v286h943v-286h-943z" />
<glyph unicode="&#x3e;" horiz-adv-x="1064" d="M61 121v319l648 242l-648 242v319l943 -379v-364z" />
<glyph unicode="?" horiz-adv-x="1019" d="M2 932q0 248 133.5 386t372.5 138q223 0 347 -98t124 -275q0 -60 -17 -113.5t-44 -92.5t-59.5 -75t-65.5 -69t-60 -65.5t-44 -72.5t-17 -83h-342q0 72 16.5 131.5t41.5 97.5t54.5 74t54.5 62t41.5 60.5t16.5 70.5q0 86 -90 86q-57 0 -84 -39.5t-27 -122.5h-352zM285 195 q0 92 58.5 150t150.5 58q94 0 152.5 -58t58.5 -150q0 -94 -58.5 -152.5t-152.5 -58.5q-92 0 -150.5 58.5t-58.5 152.5z" />
<glyph unicode="@" horiz-adv-x="1771" d="M31 549q0 182 68.5 345.5t184.5 281t277 186t338 68.5t333 -65.5t268 -179.5t176.5 -275t64.5 -345q0 -223 -110.5 -360t-282.5 -137q-198 0 -242 151l-4 14q-104 -145 -271 -145q-80 0 -156 33.5t-135.5 93t-95.5 148.5t-36 192q0 129 47 236.5t138 173t208 65.5 q41 0 80.5 -11t66 -27t47.5 -32t31 -27l10 -11v84h277v-666q0 -50 15.5 -70t45.5 -20q57 0 102.5 89t45.5 220q0 140 -42 261.5t-119.5 212t-196.5 142.5t-265 52q-175 0 -324 -91t-236 -247.5t-87 -339.5q0 -135 48 -254.5t130.5 -205t198 -134.5t245.5 -49q93 0 194 32.5 t183 96.5l105 -176q-87 -70 -223 -113t-259 -43q-177 0 -333.5 64.5t-268 176t-176.5 269t-65 336.5zM711 565q0 -95 40.5 -162t108.5 -67q74 0 116 65t42 162q0 91 -43 152t-117 61q-66 0 -106.5 -61.5t-40.5 -149.5z" />
<glyph unicode="A" horiz-adv-x="1636" d="M-20 0l606 1436h487l584 -1436h-506l-72 203h-538l-74 -203h-487zM664 543h299l-148 420z" />
<glyph unicode="B" horiz-adv-x="1482" d="M102 0v1436h727q259 0 414.5 -99.5t155.5 -263.5q0 -106 -66 -189.5t-176 -117.5q129 -29 207 -128.5t78 -234.5q0 -184 -157.5 -293.5t-420.5 -109.5h-762zM575 348h228q66 0 105.5 31.5t39.5 83.5q0 47 -39.5 75.5t-105.5 28.5h-228v-219zM575 883h228q49 0 78.5 28.5 t29.5 75.5q0 46 -29.5 73t-78.5 27h-228v-204z" />
<glyph unicode="C" horiz-adv-x="1409" d="M31 721q0 208 100 375t277.5 260.5t400.5 93.5q165 0 330.5 -71.5t275.5 -190.5l-274 -326q-64 88 -153.5 140.5t-172.5 52.5q-129 0 -213 -93t-84 -235q0 -145 84 -238.5t213 -93.5q77 0 166.5 44.5t159.5 119.5l274 -293q-120 -131 -289 -208.5t-335 -77.5 q-217 0 -391 95.5t-271.5 265t-97.5 380.5z" />
<glyph unicode="D" horiz-adv-x="1554" d="M102 0v1436h641q355 0 568 -195t213 -522t-217.5 -523t-581.5 -196h-623zM578 369h178q129 0 205.5 94t76.5 252q0 160 -83.5 256t-221.5 96h-155v-698z" />
<glyph unicode="E" d="M102 0v1436h1215v-361h-739v-176h671v-360h-671v-179h757v-360h-1233z" />
<glyph unicode="F" horiz-adv-x="1292" d="M102 0v1436h1155v-361h-679v-248h636v-360h-636v-467h-476z" />
<glyph unicode="G" horiz-adv-x="1511" d="M31 717q0 209 104 377t289 262t416 94q168 0 336.5 -60t283.5 -161l-268 -326q-72 69 -168.5 110.5t-185.5 41.5q-138 0 -229 -96t-91 -242q0 -149 92 -245.5t232 -96.5q75 0 188 47v334h408v-592q-120 -80 -298 -132t-331 -52q-222 0 -400 95t-278 263.5t-100 378.5z " />
<glyph unicode="H" horiz-adv-x="1599" d="M102 0v1436h476v-557h444v557h475v-1436h-475v518h-444v-518h-476z" />
<glyph unicode="I" horiz-adv-x="679" d="M102 0v1436h476v-1436h-476z" />
<glyph unicode="J" horiz-adv-x="1165" d="M-16 229l215 308q80 -80 160 -121t139 -41q51 0 79.5 30.5t28.5 90.5v565h-487v375h964v-951q0 -239 -145 -372t-395 -133q-333 0 -559 249z" />
<glyph unicode="K" horiz-adv-x="1583" d="M102 0v1436h476v-498l428 498h546l-512 -578l543 -858h-567l-299 494l-139 -156v-338h-476z" />
<glyph unicode="L" horiz-adv-x="1196" d="M102 0v1436h476v-1041h598v-395h-1074z" />
<glyph unicode="M" horiz-adv-x="1835" d="M102 0v1436h502l314 -750l313 750h502v-1436h-414v786l-246 -647h-311l-246 647v-786h-414z" />
<glyph unicode="N" horiz-adv-x="1599" d="M102 0v1436h398l567 -738v738h430v-1436h-397l-565 733v-733h-433z" />
<glyph unicode="O" horiz-adv-x="1638" d="M31 719q0 210 101 377t281 260.5t406 93.5t406 -93.5t281.5 -261t101.5 -376.5q0 -210 -101.5 -379t-282 -264.5t-405.5 -95.5q-226 0 -406 95t-281 264t-101 380zM518 717q0 -145 91 -243.5t216 -98.5q124 0 209.5 97.5t85.5 244.5q0 146 -85.5 242t-209.5 96 q-127 0 -217 -96.5t-90 -241.5z" />
<glyph unicode="P" horiz-adv-x="1404" d="M102 0v1436h674q280 0 434 -134t154 -380q0 -261 -154 -405t-434 -144h-198v-373h-476zM578 733h174q77 0 119 45.5t42 128.5q0 80 -42.5 124t-118.5 44h-174v-342z" />
<glyph unicode="Q" horiz-adv-x="1632" d="M31 719q0 210 101 377t281 260.5t406 93.5t406 -93.5t281.5 -261t101.5 -376.5q0 -229 -120 -407.5t-325 -264.5q51 -67 119 -67q43 0 105 27t124 71l158 -281q-83 -72 -204 -115.5t-234 -43.5q-161 0 -286 93t-183 251q-211 12 -377.5 109.5t-260 261.5t-93.5 366z M518 717q0 -145 91 -243.5t216 -98.5q124 0 209.5 97.5t85.5 244.5q0 146 -85.5 242t-209.5 96q-127 0 -217 -96.5t-90 -241.5z" />
<glyph unicode="R" horiz-adv-x="1484" d="M102 0v1436h695q292 0 452 -134t160 -380q0 -316 -227 -455l282 -467h-536l-172 373h-178v-373h-476zM578 733h219q77 0 119 45.5t42 128.5q0 80 -42.5 124t-118.5 44h-219v-342z" />
<glyph unicode="S" horiz-adv-x="1359" d="M16 215l177 356q109 -91 272.5 -157t273.5 -66q115 0 115 74q0 33 -32 57.5t-84 38.5t-119 32t-136.5 36t-136.5 51.5t-119 76.5t-84 114t-32 161q0 215 166.5 341t447.5 126q168 0 335 -46t290 -124l-172 -360q-119 66 -262.5 117t-231.5 51t-88 -60q0 -28 25.5 -50 t68.5 -37t98.5 -29.5t117 -32t123.5 -39.5t117.5 -57t98.5 -79.5t68.5 -112.5t25.5 -151q0 -93 -32 -170t-87.5 -130t-132 -89.5t-165 -53.5t-187.5 -17q-190 0 -384 61t-335 168z" />
<glyph unicode="T" horiz-adv-x="1312" d="M10 1061v375h1293v-375h-410v-1061h-475v1061h-408z" />
<glyph unicode="U" horiz-adv-x="1542" d="M82 608v828h475v-828q0 -103 64.5 -168t156.5 -65q90 0 148.5 64t58.5 169v828h475v-828q0 -286 -186 -457t-498 -171q-314 0 -504 171.5t-190 456.5z" />
<glyph unicode="V" horiz-adv-x="1564" d="M-10 1436h508l297 -942l295 942h485l-549 -1436h-491z" />
<glyph unicode="W" horiz-adv-x="2295" d="M-10 1436h508l217 -942l213 940l463 2l217 -942l213 942h485l-469 -1436h-489l-199 858l-205 -858h-489z" />
<glyph unicode="X" horiz-adv-x="1583" d="M-10 0l504 729l-474 707h553l209 -338l209 338h559l-465 -684l508 -752h-569l-242 371l-237 -371h-555z" />
<glyph unicode="Y" horiz-adv-x="1472" d="M-20 1436h473l288 -553l279 553h473l-514 -990v-446h-475v436z" />
<glyph unicode="Z" horiz-adv-x="1398" d="M41 0v297l670 774h-645v365h1277v-297l-669 -774h684v-365h-1317z" />
<glyph unicode="[" horiz-adv-x="772" d="M102 -254v1774h650v-340h-240v-1094h240v-340h-650z" />
<glyph unicode="\" horiz-adv-x="763" d="M-193 1651h386l673 -1864h-385z" />
<glyph unicode="]" horiz-adv-x="813" d="M61 86h240v1094h-240v340h650v-1774h-650v340z" />
<glyph unicode="^" horiz-adv-x="1245" d="M61 293l379 778h365l379 -778h-320l-241 534l-242 -534h-320z" />
<glyph unicode="_" horiz-adv-x="1226" d="M0 -172h1227v-246h-1227v246z" />
<glyph unicode="`" horiz-adv-x="716" d="M55 1475l389 122l220 -387h-328z" />
<glyph unicode="a" horiz-adv-x="1255" d="M31 332q0 166 110 252.5t324 89.5h256q-2 59 -46 91t-128 32q-145 0 -340 -72l-103 307q296 109 553 109q244 0 380.5 -109.5t136.5 -306.5v-725h-453v121q-103 -141 -315 -141q-177 0 -276 95t-99 257zM463 371q0 -46 26.5 -72.5t75.5 -26.5q45 0 87 22.5t69 63.5v103 h-160q-98 0 -98 -90z" />
<glyph unicode="b" d="M123 0v1520h461v-512q111 129 284 129q233 0 373.5 -159.5t140.5 -424.5q0 -260 -136 -414.5t-365 -154.5q-182 0 -297 131v-115h-461zM584 565q0 -98 45.5 -157.5t120.5 -59.5q76 0 122 59.5t46 157.5t-46 157.5t-122 59.5q-75 0 -120.5 -59.5t-45.5 -157.5z" />
<glyph unicode="c" horiz-adv-x="1148" d="M31 555q0 264 161.5 423t430.5 159q183 0 322 -85t208 -239l-367 -156q-46 107 -143 107q-67 0 -107 -56.5t-40 -150.5q0 -95 40 -152t107 -57q101 0 137 121l373 -172q-61 -149 -202 -231t-333 -82q-267 0 -427 155.5t-160 415.5z" />
<glyph unicode="d" d="M31 567q0 260 136 415t365 155q182 0 297 -131v514h461v-1520h-461v113q-111 -129 -284 -129q-233 0 -373.5 159t-140.5 424zM496 555q0 -98 46 -157.5t122 -59.5q75 0 120 59.5t45 157.5t-45 157.5t-120 59.5q-76 0 -122 -59.5t-46 -157.5z" />
<glyph unicode="e" horiz-adv-x="1257" d="M31 555q0 265 163.5 423.5t434.5 158.5q293 -1 454 -185q144 -165 144 -431q0 -31 -2 -64h-729q47 -133 186 -133q121 0 227 100l240 -236q-185 -204 -508 -204q-285 0 -447.5 154.5t-162.5 416.5zM485 670h279v13q0 60 -34 101q-38 45 -97 45q-58 0 -96 -43t-52 -116z " />
<glyph unicode="f" horiz-adv-x="872" d="M41 768v291h154v100q0 175 126 279q125 102 334 102h4q96 0 196.5 -22t170.5 -58l-154 -315q-55 39 -112 39h-4q-46 0 -74 -24q-29 -26 -29 -70v-31h217v-291h-217v-768h-458v768h-154z" />
<glyph unicode="g" horiz-adv-x="1339" d="M31 608q0 239 126 384t326 145q180 0 289 -121v104h459v-1028q0 -232 -173.5 -371t-453.5 -139q-153 0 -293 41.5t-235 104.5l145 309q73 -45 166 -71.5t176 -26.5q100 0 154.5 38t54.5 103v106q-106 -118 -280 -118q-201 0 -331 148t-130 392zM461 596q0 -91 42.5 -146 t112.5 -55t113 55t43 146q0 92 -42.5 147.5t-113.5 55.5q-70 0 -112.5 -55.5t-42.5 -147.5z" />
<glyph unicode="h" horiz-adv-x="1406" d="M123 0v1520h461v-559q119 180 340 180q178 0 289.5 -117t111.5 -309v-715h-461v582q0 70 -36.5 111.5t-96.5 41.5q-67 0 -107 -49t-40 -131v-555h-461z" />
<glyph unicode="i" horiz-adv-x="686" d="M111 1440q0 103 65 168t168 65t168.5 -65t65.5 -168t-65.5 -168.5t-168.5 -65.5t-168 65.5t-65 168.5zM113 0v1120h460v-1120h-460z" />
<glyph unicode="j" horiz-adv-x="712" d="M-182 -346l102 315q61 -28 113 -28h6q39 0 61 23q23 24 23 71v1085h461v-1155q0 -176 -121 -279q-119 -102 -316 -102h-8q-184 0 -321 70zM100 1440q0 103 71 168t181 65q112 0 182 -65t70 -168t-70 -168.5t-182 -65.5q-110 0 -181 65.5t-71 168.5z" />
<glyph unicode="k" horiz-adv-x="1355" d="M123 0v1520h461v-691l260 291h520l-408 -432l402 -688h-547l-172 352l-55 -57v-295h-461z" />
<glyph unicode="l" horiz-adv-x="706" d="M123 0v1520h461v-1520h-461z" />
<glyph unicode="m" horiz-adv-x="2113" d="M113 0v1120h460v-157q120 178 334 178q127 0 223 -63.5t140 -176.5q55 115 148.5 177.5t217.5 62.5q175 0 285.5 -117t110.5 -309v-715h-461v582q0 70 -35 111.5t-92 41.5q-64 0 -102.5 -49t-38.5 -131v-555h-461v582q0 70 -35 111.5t-92 41.5q-64 0 -103 -49t-39 -131 v-555h-460z" />
<glyph unicode="n" horiz-adv-x="1396" d="M113 0v1120h460v-159q119 180 340 180q178 0 290 -117t112 -309v-715h-461v582q0 70 -36.5 111.5t-96.5 41.5q-67 0 -107.5 -49t-40.5 -131v-555h-460z" />
<glyph unicode="o" horiz-adv-x="1327" d="M31 561q0 263 172 419.5t461 156.5t460.5 -156.5t171.5 -419.5t-172 -420t-460 -157q-289 0 -461 157t-172 420zM496 555q0 -98 46 -157.5t122 -59.5t121.5 59t45.5 158t-45.5 158t-121.5 59t-122 -59.5t-46 -157.5z" />
<glyph unicode="p" d="M123 -397v1517h461v-112q111 129 284 129q233 0 373.5 -159.5t140.5 -424.5q0 -260 -136 -414.5t-365 -154.5q-182 0 -297 131v-512h-461zM584 565q0 -98 45.5 -157.5t120.5 -59.5q76 0 122 59.5t46 157.5t-46 157.5t-122 59.5q-75 0 -120.5 -59.5t-45.5 -157.5z" />
<glyph unicode="q" d="M31 567q0 260 136 415t365 155q182 0 297 -131v114h461v-1517h-461v510q-111 -129 -284 -129q-233 0 -373.5 159t-140.5 424zM496 555q0 -98 46 -157.5t122 -59.5q75 0 120 59.5t45 157.5t-45 157.5t-120 59.5q-76 0 -122 -59.5t-46 -157.5z" />
<glyph unicode="r" horiz-adv-x="935" d="M113 0v1120h460v-164q59 89 146.5 137t195.5 48v-416q-48 7 -90 7q-94 0 -159 -36q-93 -52 -93 -161v-535h-460z" />
<glyph unicode="s" horiz-adv-x="1130" d="M25 139l139 287q227 -139 414 -139q69 0 69 32q0 19 -31.5 34.5t-81.5 28.5t-110.5 29.5t-121.5 43.5t-111 63.5t-81.5 97.5t-31.5 138q0 177 134 282t359 105q267 0 521 -142l-152 -284q-249 123 -379 123q-63 0 -63 -37q0 -21 32 -37t83.5 -30t113 -31t123.5 -44.5 t113.5 -64t83.5 -97t32 -137.5q0 -173 -138 -276.5t-370 -103.5q-312 0 -546 159z" />
<glyph unicode="t" horiz-adv-x="942" d="M16 768v291h154v313h459v-313h262v-291h-262v-338q1 -44 25 -70q24 -25 62 -24h3q37 0 115 29l77 -316q-55 -32 -142 -50.5t-177 -18.5h-7q-187 0 -300 102q-115 104 -115 278v408h-154z" />
<glyph unicode="u" horiz-adv-x="1376" d="M82 406v714h461v-581q0 -70 33.5 -112t89.5 -42q63 0 100 49t37 131v555h461v-1120h-461v156q-115 -176 -330 -176q-173 0 -282 117t-109 309z" />
<glyph unicode="v" horiz-adv-x="1253" d="M-20 1120h473l178 -702l182 702h461l-414 -1120h-471z" />
<glyph unicode="w" horiz-adv-x="2000" d="M-20 1120h466l179 -667l172 667h426l178 -667l176 667h444l-409 -1120h-451l-160 590l-165 -590h-451z" />
<glyph unicode="x" horiz-adv-x="1339" d="M-10 0l370 573l-348 547h529l129 -262l151 262h504l-348 -545l373 -575h-531l-149 291l-174 -291h-506z" />
<glyph unicode="y" horiz-adv-x="1277" d="M-41 -287l193 303q71 -65 149 -65q77 0 111 57l16 27l-465 1085h473l221 -639l183 639h458l-460 -1198q-70 -174 -190.5 -257t-301.5 -83q-211 0 -387 131z" />
<glyph unicode="z" horiz-adv-x="1163" d="M51 0v268l467 508h-446v344h1028v-268l-467 -508h487v-344h-1069z" />
<glyph unicode="{" horiz-adv-x="780" d="M29 459v348h92q35 0 49 15t14 55v333q0 177 86.5 245.5t309.5 68.5h180v-338q-100 0 -133 -25.5t-33 -95.5v-158q0 -124 -44.5 -186t-152.5 -88q108 -26 152.5 -88.5t44.5 -186.5v-157q0 -70 33 -95.5t133 -25.5v-338h-180q-223 0 -309.5 68t-86.5 245v334q0 40 -14 55 t-49 15h-92z" />
<glyph unicode="|" horiz-adv-x="667" d="M164 -211v1841h340v-1841h-340z" />
<glyph unicode="}" horiz-adv-x="780" d="M20 80q100 0 133 25.5t33 95.5v157q0 124 44.5 186.5t152.5 88.5q-108 26 -152.5 88t-44.5 186v158q0 70 -33 95.5t-133 25.5v338h181q223 0 309 -68.5t86 -245.5v-333q0 -40 14 -55t49 -15h93v-348h-93q-35 0 -49 -15t-14 -55v-334q0 -177 -86 -245t-309 -68h-181v338z " />
<glyph unicode="~" horiz-adv-x="1064" d="M96 469q0 211 64 311.5t198 100.5q48 0 91.5 -14t69 -31t51 -31t42.5 -14q54 0 54 83h303q0 -211 -63.5 -311t-196.5 -100q-48 0 -91.5 14t-69 31t-51 31t-42.5 14q-54 0 -54 -84h-305z" />
<glyph unicode="&#xa1;" horiz-adv-x="602" d="M82 59l82 531h274l82 -531v-376h-438v376zM100 924q0 94 58.5 152.5t152.5 58.5q92 0 150.5 -58.5t58.5 -152.5q0 -92 -58.5 -150.5t-150.5 -58.5q-94 0 -152.5 58.5t-58.5 150.5z" />
<glyph unicode="&#xa2;" horiz-adv-x="1148" d="M31 555q0 223 118 373.5t322 193.5v340h340v-352q239 -70 342 -297l-367 -156q-46 107 -143 107q-67 0 -107 -56.5t-40 -150.5q0 -95 40 -152t107 -57q101 0 137 121l373 -172q-44 -108 -132 -182.5t-210 -106.5v-346h-340v336q-205 40 -322.5 188t-117.5 369z" />
<glyph unicode="&#xa3;" horiz-adv-x="1159" d="M41 0v354h143v187h-143v311h143v98q0 241 140 373.5t395 132.5q132 0 252 -43.5t209 -124.5l-172 -348q-133 121 -238 121q-108 0 -108 -121v-88h325v-311h-325v-187h487v-354h-1108z" />
<glyph unicode="&#xa5;" horiz-adv-x="1431" d="M-20 1436h473l288 -553l279 553h473l-367 -705h174v-166h-260l-49 -94h309v-168h-321v-303h-475v303h-373v168h354l-49 94h-305v166h217z" />
<glyph unicode="&#xa7;" horiz-adv-x="1200" d="M25 -25l125 287q233 -139 409 -139q78 0 78 31q0 17 -25.5 32.5t-67 28t-95 29.5t-108.5 35.5t-108.5 48t-95 65.5t-67 89.5t-25.5 117.5q0 185 186 283q-56 40 -75 81t-19 99q0 159 131.5 258.5t352.5 99.5q259 0 520 -141l-137 -285q-255 123 -379 123q-68 0 -68 -33 q0 -21 33.5 -39.5t86.5 -35t117.5 -35.5t129 -48.5t117.5 -67t86.5 -96.5t33.5 -132q0 -183 -186 -281q51 -43 72.5 -79.5t21.5 -102.5q0 -157 -135 -254.5t-365 -97.5q-144 0 -285 40.5t-259 118.5zM463 631q0 -29 45.5 -46.5t114.5 -17.5q108 0 108 41q0 28 -51 47 t-119 19q-98 0 -98 -43z" />
<glyph unicode="&#xa8;" horiz-adv-x="716" d="M-41 1430q0 83 51.5 135.5t134.5 52.5t135 -52.5t52 -135.5q0 -82 -52 -134.5t-135 -52.5t-134.5 52.5t-51.5 134.5zM385 1430q0 83 51.5 135.5t134.5 52.5t135 -52.5t52 -135.5q0 -82 -52 -134.5t-135 -52.5t-134.5 52.5t-51.5 134.5z" />
<glyph unicode="&#xa9;" horiz-adv-x="1447" d="M31 713q0 140 54 268.5t146 223t221 150.5t273 56q143 0 271.5 -55t220.5 -148.5t146 -221.5t54 -269q0 -140 -54.5 -268.5t-146.5 -223t-221.5 -151t-273.5 -56.5q-143 0 -271.5 55.5t-220 149.5t-145 222t-53.5 268zM236 713q0 -132 63.5 -244.5t175.5 -179t246 -66.5 q136 0 249.5 67.5t177.5 180.5t64 246q0 202 -141.5 345.5t-345.5 143.5q-135 0 -248 -67t-177 -180t-64 -246zM389 715q0 143 99 236t251 93q74 0 149 -32t124 -86l-123 -148q-29 40 -69 64t-77 24q-59 0 -97 -41.5t-38 -105.5q0 -66 38 -108t97 -42q34 0 74 20t72 54 l123 -131q-54 -60 -130 -94.5t-151 -34.5q-149 0 -245.5 93.5t-96.5 238.5z" />
<glyph unicode="&#xaa;" horiz-adv-x="819" d="M23 1139q0 101 70.5 154t207.5 55h158q-9 57 -105 57q-87 0 -215 -39l-69 199q196 61 358 61q160 0 248.5 -65.5t87.5 -186.5v-436h-305v68q-66 -82 -197 -82q-112 0 -175.5 58.5t-63.5 156.5zM315 1163q0 -49 56 -49q53 0 88 41v55h-92q-52 0 -52 -47z" />
<glyph unicode="&#xab;" horiz-adv-x="1114" d="M-35 559l254 395h369l-217 -395l217 -399h-369zM496 559l254 395h368l-217 -395l217 -399h-368z" />
<glyph unicode="&#xac;" horiz-adv-x="1214" d="M61 633v287h1045v-656h-328v369h-717z" />
<glyph unicode="&#xad;" horiz-adv-x="778" d="M102 489v287h574v-287h-574z" />
<glyph unicode="&#xae;" horiz-adv-x="1447" d="M31 713q0 140 54 268.5t146 223t221 150.5t273 56q143 0 271.5 -55t220.5 -148.5t146 -221.5t54 -269q0 -140 -54.5 -268.5t-146.5 -223t-221.5 -151t-273.5 -56.5q-143 0 -271.5 55.5t-220 149.5t-145 222t-53.5 268zM236 713q0 -132 63.5 -244.5t175.5 -179t246 -66.5 q136 0 249.5 67.5t177.5 180.5t64 246q0 202 -141.5 345.5t-345.5 143.5q-135 0 -248 -67t-177 -180t-64 -246zM459 432v617h289q126 0 195 -58t69 -162q0 -135 -99 -196l123 -201h-231l-74 160h-67v-160h-205zM664 748h84q69 0 69 73q0 74 -69 74h-84v-147z" />
<glyph unicode="&#xb0;" horiz-adv-x="819" d="M176 1440q0 103 72.5 175.5t175.5 72.5t175.5 -72.5t72.5 -175.5t-72.5 -175.5t-175.5 -72.5t-175.5 72.5t-72.5 175.5zM346 1440q0 -32 23 -55t55 -23t55 23t23 55t-23 55t-55 23t-55 -23t-23 -55z" />
<glyph unicode="&#xb1;" horiz-adv-x="1064" d="M61 -33v287h943v-287h-943zM61 707v272h328v311h287v-311h328v-272h-328v-312h-287v312h-328z" />
<glyph unicode="&#xb4;" horiz-adv-x="716" d="M55 1210l219 387l390 -122l-281 -265h-328z" />
<glyph unicode="&#xb5;" horiz-adv-x="1417" d="M123 -397v1517h461v-581q0 -70 33.5 -112t89.5 -42q63 0 100 49t37 131v555h461v-1120h-461v156q-97 -147 -260 -170v-383h-461z" />
<glyph unicode="&#xb6;" horiz-adv-x="1396" d="M-20 1051q0 74 18 140.5t58.5 127t100.5 105t150.5 70.5t202.5 26h784v-1735h-340v1481h-147v-1481h-340v815h-45q-101 0 -180.5 30.5t-127.5 77.5t-79.5 109t-43 119t-11.5 115z" />
<glyph unicode="&#xb7;" horiz-adv-x="542" d="M61 598q0 92 58.5 150.5t150.5 58.5q94 0 152.5 -58.5t58.5 -150.5q0 -94 -58.5 -152.5t-152.5 -58.5q-92 0 -150.5 58.5t-58.5 152.5z" />
<glyph unicode="&#xb8;" horiz-adv-x="716" d="M111 -436l82 184q33 -41 83 -41q35 0 56.5 18.5t21.5 49.5q0 32 -24 50.5t-64 18.5q-31 0 -76 -10l105 203h252l-76 -141q61 -22 98 -68t37 -102q0 -106 -78.5 -169t-210.5 -63q-46 0 -102.5 19t-103.5 51z" />
<glyph unicode="&#xba;" horiz-adv-x="858" d="M25 1276q0 160 109 254t294 94q186 0 296 -94t110 -254q0 -159 -110 -253.5t-296 -94.5q-184 0 -293.5 94.5t-109.5 253.5zM338 1272q0 -53 24.5 -84t65.5 -31t65.5 31t24.5 84q0 54 -24.5 85.5t-65.5 31.5t-65.5 -31.5t-24.5 -85.5z" />
<glyph unicode="&#xbb;" horiz-adv-x="1114" d="M-4 160l217 395l-217 399h369l253 -399l-253 -395h-369zM526 160l217 395l-217 399h369l254 -399l-254 -395h-369z" />
<glyph unicode="&#xbf;" horiz-adv-x="1019" d="M41 37q0 60 17 113.5t44 92.5t59.5 75t65.5 69t60 65.5t44 72.5t17 83h342q0 -72 -16.5 -131.5t-41.5 -97.5t-54.5 -73.5t-54.5 -61.5t-41.5 -60.5t-16.5 -70.5q0 -86 90 -86q57 0 84 39t27 122h352q0 -248 -133.5 -386t-372.5 -138q-223 0 -347 98t-124 275zM315 926 q0 94 58.5 152.5t152.5 58.5q92 0 150.5 -58.5t58.5 -152.5q0 -92 -58.5 -150.5t-150.5 -58.5q-94 0 -152.5 58.5t-58.5 150.5z" />
<glyph unicode="&#xc0;" horiz-adv-x="1636" d="M-20 0l606 1436h487l584 -1436h-506l-72 203h-538l-74 -203h-487zM440 1790l389 123l220 -387h-328zM664 543h299l-148 420z" />
<glyph unicode="&#xc1;" horiz-adv-x="1636" d="M-20 0l606 1436h487l584 -1436h-506l-72 203h-538l-74 -203h-487zM604 1526l219 387l389 -123l-280 -264h-328zM664 543h299l-148 420z" />
<glyph unicode="&#xc2;" horiz-adv-x="1636" d="M-20 0l606 1436h487l584 -1436h-506l-72 203h-538l-74 -203h-487zM399 1559l248 331h344l248 -331h-307l-113 167l-112 -167h-308zM664 543h299l-148 420z" />
<glyph unicode="&#xc3;" horiz-adv-x="1636" d="M-20 0l606 1436h487l584 -1436h-506l-72 203h-538l-74 -203h-487zM422 1573q0 191 59 283t181 92q43 0 82.5 -13t62.5 -28t46 -28t38 -13q49 0 49 76h277q0 -190 -58 -281.5t-180 -91.5q-44 0 -83.5 13t-62.5 28t-46 28t-39 13q-48 0 -48 -78h-278zM664 543h299l-148 420 z" />
<glyph unicode="&#xc4;" horiz-adv-x="1636" d="M-20 0l606 1436h487l584 -1436h-506l-72 203h-538l-74 -203h-487zM420 1745q0 83 51.5 135.5t134.5 52.5t135 -52.5t52 -135.5q0 -82 -52 -134t-135 -52t-134.5 52t-51.5 134zM664 543h299l-148 420zM846 1745q0 83 51.5 135.5t134.5 52.5t135 -52.5t52 -135.5 q0 -82 -52 -134t-135 -52t-134.5 52t-51.5 134z" />
<glyph unicode="&#xc5;" horiz-adv-x="1636" d="M-20 0l604 1432q-31 57 -31 127q0 115 79.5 194.5t194.5 79.5q116 0 195.5 -79.5t79.5 -194.5q0 -63 -29 -123l584 -1436h-506l-72 203h-538l-74 -203h-487zM664 543h299l-148 420zM741 1559q0 -37 24.5 -61.5t61.5 -24.5t61.5 24.5t24.5 61.5t-24.5 61.5t-61.5 24.5 t-61.5 -24.5t-24.5 -61.5z" />
<glyph unicode="&#xc6;" horiz-adv-x="2349" d="M-20 0l798 1436h1475v-361h-740v-176h672v-360h-672v-179h758v-360h-1233v250h-444l-123 -250h-491zM764 590h274v485h-34z" />
<glyph unicode="&#xc7;" horiz-adv-x="1409" d="M31 721q0 208 100 375t277.5 260.5t400.5 93.5q165 0 330.5 -71.5t275.5 -190.5l-274 -326q-64 88 -153.5 140.5t-172.5 52.5q-129 0 -213 -93t-84 -235q0 -145 84 -238.5t213 -93.5q77 0 166.5 44.5t159.5 119.5l274 -293q-96 -105 -227 -177t-270 -97l-52 -96 q61 -22 98 -68t37 -102q0 -106 -78 -169t-210 -63q-46 0 -103 19t-104 51l82 184q33 -41 84 -41q35 0 56.5 18.5t21.5 49.5q0 32 -24 50.5t-64 18.5q-31 0 -76 -10l80 154q-283 40 -459 242t-176 491z" />
<glyph unicode="&#xc8;" d="M102 0v1436h1215v-361h-739v-176h671v-360h-671v-179h757v-360h-1233zM334 1790l389 123l219 -387h-328z" />
<glyph unicode="&#xc9;" d="M102 0v1436h1215v-361h-739v-176h671v-360h-671v-179h757v-360h-1233zM498 1526l219 387l389 -123l-281 -264h-327z" />
<glyph unicode="&#xca;" d="M102 0v1436h1215v-361h-739v-176h671v-360h-671v-179h757v-360h-1233zM293 1559l248 331h344l248 -331h-308l-112 167l-113 -167h-307z" />
<glyph unicode="&#xcb;" d="M102 0v1436h1215v-361h-739v-176h671v-360h-671v-179h757v-360h-1233zM313 1745q0 83 52 135.5t135 52.5t134.5 -52.5t51.5 -135.5q0 -82 -51.5 -134t-134.5 -52t-135 52t-52 134zM739 1745q0 83 52 135.5t135 52.5t134.5 -52.5t51.5 -135.5q0 -82 -51.5 -134t-134.5 -52 t-135 52t-52 134z" />
<glyph unicode="&#xcc;" horiz-adv-x="679" d="M-39 1790l389 123l219 -387h-327zM102 0v1436h476v-1436h-476z" />
<glyph unicode="&#xcd;" horiz-adv-x="679" d="M102 0v1436h476v-1436h-476zM125 1526l219 387l389 -123l-280 -264h-328z" />
<glyph unicode="&#xce;" horiz-adv-x="679" d="M-80 1559l248 331h344l248 -331h-307l-113 167l-113 -167h-307zM102 0v1436h476v-1436h-476z" />
<glyph unicode="&#xcf;" horiz-adv-x="679" d="M-59 1745q0 83 51.5 135.5t134.5 52.5t134.5 -52.5t51.5 -135.5q0 -82 -51.5 -134t-134.5 -52t-134.5 52t-51.5 134zM102 0v1436h476v-1436h-476zM367 1745q0 83 51.5 135.5t134.5 52.5t134.5 -52.5t51.5 -135.5q0 -82 -51.5 -134t-134.5 -52t-134.5 52t-51.5 134z" />
<glyph unicode="&#xd0;" horiz-adv-x="1642" d="M0 596v244h190v596h641q355 0 568 -195t213 -522t-217.5 -523t-581.5 -196h-623v596h-190zM666 369h178q129 0 205.5 94t76.5 252q0 160 -83.5 256t-221.5 96h-155v-227h252v-244h-252v-227z" />
<glyph unicode="&#xd1;" horiz-adv-x="1599" d="M102 0v1436h398l567 -738v738h430v-1436h-397l-565 733v-733h-433zM403 1573q0 191 59 283t181 92q43 0 82.5 -13t62.5 -28t46 -28t38 -13q50 0 50 76h276q0 -191 -58 -282t-179 -91q-56 0 -103 20.5t-79 41t-50 20.5q-47 0 -47 -78h-279z" />
<glyph unicode="&#xd2;" horiz-adv-x="1638" d="M31 719q0 210 101 377t281 260.5t406 93.5t406 -93.5t281.5 -261t101.5 -376.5q0 -210 -101.5 -379t-282 -264.5t-405.5 -95.5q-226 0 -406 95t-281 264t-101 380zM420 1790l389 123l219 -387h-328zM518 717q0 -145 91 -243.5t216 -98.5q124 0 209.5 97.5t85.5 244.5 q0 146 -85.5 242t-209.5 96q-127 0 -217 -96.5t-90 -241.5z" />
<glyph unicode="&#xd3;" horiz-adv-x="1638" d="M31 719q0 210 101 377t281 260.5t406 93.5t406 -93.5t281.5 -261t101.5 -376.5q0 -210 -101.5 -379t-282 -264.5t-405.5 -95.5q-226 0 -406 95t-281 264t-101 380zM518 717q0 -145 91 -243.5t216 -98.5q124 0 209.5 97.5t85.5 244.5q0 146 -85.5 242t-209.5 96 q-127 0 -217 -96.5t-90 -241.5zM584 1526l219 387l389 -123l-281 -264h-327z" />
<glyph unicode="&#xd4;" horiz-adv-x="1638" d="M31 719q0 210 101 377t281 260.5t406 93.5t406 -93.5t281.5 -261t101.5 -376.5q0 -210 -101.5 -379t-282 -264.5t-405.5 -95.5q-226 0 -406 95t-281 264t-101 380zM379 1559l248 331h344l248 -331h-308l-112 167l-113 -167h-307zM518 717q0 -145 91 -243.5t216 -98.5 q124 0 209.5 97.5t85.5 244.5q0 146 -85.5 242t-209.5 96q-127 0 -217 -96.5t-90 -241.5z" />
<glyph unicode="&#xd5;" horiz-adv-x="1638" d="M31 719q0 210 101 377t281 260.5t406 93.5t406 -93.5t281.5 -261t101.5 -376.5q0 -210 -101.5 -379t-282 -264.5t-405.5 -95.5q-226 0 -406 95t-281 264t-101 380zM401 1573q0 191 59 283t181 92q43 0 82.5 -13t62.5 -28t46 -28t38 -13q50 0 50 76h276q0 -190 -58 -281.5 t-180 -91.5q-44 0 -83.5 13t-62.5 28t-46.5 28t-38.5 13q-47 0 -47 -78h-279zM518 717q0 -145 91 -243.5t216 -98.5q124 0 209.5 97.5t85.5 244.5q0 146 -85.5 242t-209.5 96q-127 0 -217 -96.5t-90 -241.5z" />
<glyph unicode="&#xd6;" horiz-adv-x="1638" d="M31 719q0 210 101 377t281 260.5t406 93.5t406 -93.5t281.5 -261t101.5 -376.5q0 -210 -101.5 -379t-282 -264.5t-405.5 -95.5q-226 0 -406 95t-281 264t-101 380zM399 1745q0 83 52 135.5t135 52.5t134.5 -52.5t51.5 -135.5q0 -82 -51.5 -134t-134.5 -52t-135 52 t-52 134zM518 717q0 -145 91 -243.5t216 -98.5q124 0 209.5 97.5t85.5 244.5q0 146 -85.5 242t-209.5 96q-127 0 -217 -96.5t-90 -241.5zM825 1745q0 83 52 135.5t135 52.5t134.5 -52.5t51.5 -135.5q0 -82 -51.5 -134t-134.5 -52t-135 52t-52 134z" />
<glyph unicode="&#xd8;" horiz-adv-x="1638" d="M31 719q0 210 101 377t281 260.5t406 93.5q32 0 94 -4l74 205h260l-94 -262q210 -84 332.5 -262t122.5 -408q0 -210 -101.5 -379t-282 -264.5t-405.5 -95.5q-77 0 -170 14l-76 -207h-260l105 287q-181 93 -284 262.5t-103 382.5zM518 717q0 -112 60 -201l192 533 q-108 -21 -180 -112.5t-72 -219.5zM786 377q12 -2 39 -2q124 0 209.5 97.5t85.5 244.5q0 171 -114 270z" />
<glyph unicode="&#xd9;" horiz-adv-x="1542" d="M82 608v828h475v-828q0 -103 64.5 -168t156.5 -65q90 0 148.5 64t58.5 169v828h475v-828q0 -286 -186 -457t-498 -171q-314 0 -504 171.5t-190 456.5zM393 1790l389 123l219 -387h-327z" />
<glyph unicode="&#xda;" horiz-adv-x="1542" d="M82 608v828h475v-828q0 -103 64.5 -168t156.5 -65q90 0 148.5 64t58.5 169v828h475v-828q0 -286 -186 -457t-498 -171q-314 0 -504 171.5t-190 456.5zM557 1526l219 387l389 -123l-280 -264h-328z" />
<glyph unicode="&#xdb;" horiz-adv-x="1542" d="M82 608v828h475v-828q0 -103 64.5 -168t156.5 -65q90 0 148.5 64t58.5 169v828h475v-828q0 -286 -186 -457t-498 -171q-314 0 -504 171.5t-190 456.5zM352 1559l248 331h344l248 -331h-307l-113 167l-113 -167h-307z" />
<glyph unicode="&#xdc;" horiz-adv-x="1542" d="M82 608v828h475v-828q0 -103 64.5 -168t156.5 -65q90 0 148.5 64t58.5 169v828h475v-828q0 -286 -186 -457t-498 -171q-314 0 -504 171.5t-190 456.5zM373 1745q0 83 51.5 135.5t134.5 52.5t134.5 -52.5t51.5 -135.5q0 -82 -51.5 -134t-134.5 -52t-134.5 52t-51.5 134z M799 1745q0 83 51.5 135.5t134.5 52.5t134.5 -52.5t51.5 -135.5q0 -82 -51.5 -134t-134.5 -52t-134.5 52t-51.5 134z" />
<glyph unicode="&#xdd;" horiz-adv-x="1472" d="M-20 1436h473l288 -553l279 553h473l-514 -990v-446h-475v436zM522 1526l219 387l389 -123l-280 -264h-328z" />
<glyph unicode="&#xde;" horiz-adv-x="1429" d="M102 0v1436h476v-176h204q277 0 442 -138t165 -370q0 -248 -165 -395.5t-442 -147.5h-204v-209h-476zM578 569h184q63 0 101 46t38 122q0 73 -38 117.5t-101 44.5h-184v-330z" />
<glyph unicode="&#xdf;" horiz-adv-x="1372" d="M82 0v1016q0 239 159 381.5t425 142.5q262 0 418.5 -114.5t156.5 -305.5q0 -95 -43.5 -185t-116.5 -147q114 -40 182 -133.5t68 -210.5q0 -202 -162 -323t-434 -121h-96v324h47q103 0 151 32t48 101q0 65 -48 95t-151 30h-47v321q81 0 118.5 35.5t37.5 112.5t-29 112 t-92 35q-68 0 -99.5 -35.5t-31.5 -111.5v-1051h-461z" />
<glyph unicode="&#xe0;" horiz-adv-x="1255" d="M31 332q0 166 110 252.5t324 89.5h256q-2 59 -46 91t-128 32q-145 0 -340 -72l-103 307q296 109 553 109q244 0 380.5 -109.5t136.5 -306.5v-725h-453v121q-103 -141 -315 -141q-177 0 -276 95t-99 257zM252 1475l389 122l219 -387h-328zM463 371q0 -46 26.5 -72.5 t75.5 -26.5q45 0 87 22.5t69 63.5v103h-160q-98 0 -98 -90z" />
<glyph unicode="&#xe1;" horiz-adv-x="1255" d="M31 332q0 166 110 252.5t324 89.5h256q-2 59 -46 91t-128 32q-145 0 -340 -72l-103 307q296 109 553 109q244 0 380.5 -109.5t136.5 -306.5v-725h-453v121q-103 -141 -315 -141q-177 0 -276 95t-99 257zM416 1210l219 387l389 -122l-281 -265h-327zM463 371 q0 -46 26.5 -72.5t75.5 -26.5q45 0 87 22.5t69 63.5v103h-160q-98 0 -98 -90z" />
<glyph unicode="&#xe2;" horiz-adv-x="1255" d="M31 332q0 166 110 252.5t324 89.5h256q-2 59 -46 91t-128 32q-145 0 -340 -72l-103 307q296 109 553 109q244 0 380.5 -109.5t136.5 -306.5v-725h-453v121q-103 -141 -315 -141q-177 0 -276 95t-99 257zM211 1243l248 332h344l248 -332h-308l-112 168l-113 -168h-307z M463 371q0 -46 26.5 -72.5t75.5 -26.5q45 0 87 22.5t69 63.5v103h-160q-98 0 -98 -90z" />
<glyph unicode="&#xe3;" horiz-adv-x="1255" d="M31 332q0 166 110 252.5t324 89.5h256q-2 59 -46 91t-128 32q-145 0 -340 -72l-103 307q296 109 553 109q244 0 380.5 -109.5t136.5 -306.5v-725h-453v121q-103 -141 -315 -141q-177 0 -276 95t-99 257zM233 1257q0 191 59 283t181 92q43 0 82.5 -13t62.5 -28t46 -28 t38 -13q50 0 50 76h276q0 -191 -58 -282t-179 -91q-56 0 -103 20.5t-79 41t-50 20.5q-47 0 -47 -78h-279zM463 371q0 -46 26.5 -72.5t75.5 -26.5q45 0 87 22.5t69 63.5v103h-160q-98 0 -98 -90z" />
<glyph unicode="&#xe4;" horiz-adv-x="1255" d="M31 332q0 166 110 252.5t324 89.5h256q-2 59 -46 91t-128 32q-145 0 -340 -72l-103 307q296 109 553 109q244 0 380.5 -109.5t136.5 -306.5v-725h-453v121q-103 -141 -315 -141q-177 0 -276 95t-99 257zM231 1430q0 83 52 135.5t135 52.5t134.5 -52.5t51.5 -135.5 q0 -82 -51.5 -134.5t-134.5 -52.5t-135 52.5t-52 134.5zM463 371q0 -46 26.5 -72.5t75.5 -26.5q45 0 87 22.5t69 63.5v103h-160q-98 0 -98 -90zM657 1430q0 83 52 135.5t135 52.5t134.5 -52.5t51.5 -135.5q0 -82 -51.5 -134.5t-134.5 -52.5t-135 52.5t-52 134.5z" />
<glyph unicode="&#xe5;" horiz-adv-x="1255" d="M31 332q0 166 110 252.5t324 89.5h256q-2 59 -46 91t-128 32q-145 0 -340 -72l-103 307q296 109 553 109q244 0 380.5 -109.5t136.5 -306.5v-725h-453v121q-103 -141 -315 -141q-177 0 -276 95t-99 257zM377 1440q0 106 74 180t180 74t180 -74t74 -180t-74 -180t-180 -74 t-180 74t-74 180zM463 371q0 -46 26.5 -72.5t75.5 -26.5q45 0 87 22.5t69 63.5v103h-160q-98 0 -98 -90zM551 1440q0 -34 23 -57t57 -23t57 23t23 57t-23 57t-57 23t-57 -23t-23 -57z" />
<glyph unicode="&#xe6;" horiz-adv-x="1961" d="M31 332q0 165 111 252t325 90h260q-2 59 -47 91t-129 32q-149 0 -344 -72l-103 307q301 109 555 109q226 0 359 -92q130 88 313 88q294 0 455.5 -184.5t142.5 -495.5h-731q47 -133 186 -133q124 0 230 100l239 -236q-185 -204 -510 -204q-308 0 -450 206 q-133 -213 -442 -213q-196 0 -308 96.5t-112 258.5zM463 371q0 -46 27.5 -72.5t76.5 -26.5q45 0 88 22.5t72 63.5v103h-164q-48 0 -74 -23t-26 -67zM1188 670h280q4 69 -33.5 114t-99.5 45q-58 0 -95.5 -43t-51.5 -116z" />
<glyph unicode="&#xe7;" horiz-adv-x="1148" d="M31 555q0 264 161.5 423t430.5 159q183 0 322 -85t208 -239l-367 -156q-46 107 -143 107q-67 0 -107 -56.5t-40 -150.5q0 -95 40 -152t107 -57q101 0 137 121l373 -172q-49 -119 -151 -197t-242 -104l-53 -100q61 -22 98 -68t37 -102q0 -106 -78.5 -169t-210.5 -63 q-46 0 -103 19t-104 51l82 184q33 -41 84 -41q35 0 56.5 18.5t21.5 49.5q0 32 -24 50.5t-64 18.5q-31 0 -76 -10l82 158q-221 32 -349 182t-128 381z" />
<glyph unicode="&#xe8;" horiz-adv-x="1257" d="M31 555q0 265 163.5 423.5t434.5 158.5q293 0 454 -184.5t142 -495.5h-729q47 -133 186 -133q121 0 227 100l240 -236q-185 -204 -508 -204q-285 0 -447.5 154.5t-162.5 416.5zM242 1475l389 122l219 -387h-328zM485 670h279q4 69 -33.5 114t-97.5 45q-58 0 -96 -43 t-52 -116z" />
<glyph unicode="&#xe9;" horiz-adv-x="1257" d="M31 555q0 265 163.5 423.5t434.5 158.5q293 0 454 -184.5t142 -495.5h-729q47 -133 186 -133q121 0 227 100l240 -236q-185 -204 -508 -204q-285 0 -447.5 154.5t-162.5 416.5zM406 1210l219 387l389 -122l-281 -265h-327zM485 670h279q4 69 -33.5 114t-97.5 45 q-58 0 -96 -43t-52 -116z" />
<glyph unicode="&#xea;" horiz-adv-x="1257" d="M31 555q0 265 163.5 423.5t434.5 158.5q293 0 454 -184.5t142 -495.5h-729q47 -133 186 -133q121 0 227 100l240 -236q-185 -204 -508 -204q-285 0 -447.5 154.5t-162.5 416.5zM201 1243l248 332h344l247 -332h-307l-112 168l-113 -168h-307zM485 670h279q4 69 -33.5 114 t-97.5 45q-58 0 -96 -43t-52 -116z" />
<glyph unicode="&#xeb;" horiz-adv-x="1257" d="M31 555q0 265 163.5 423.5t434.5 158.5q293 0 454 -184.5t142 -495.5h-729q47 -133 186 -133q121 0 227 100l240 -236q-185 -204 -508 -204q-285 0 -447.5 154.5t-162.5 416.5zM221 1430q0 83 52 135.5t135 52.5t134.5 -52.5t51.5 -135.5q0 -82 -51.5 -134.5 t-134.5 -52.5t-135 52.5t-52 134.5zM485 670h279q4 69 -33.5 114t-97.5 45q-58 0 -96 -43t-52 -116zM647 1430q0 83 52 135.5t135 52.5t134.5 -52.5t51.5 -135.5q0 -82 -51.5 -134.5t-134.5 -52.5t-135 52.5t-52 134.5z" />
<glyph unicode="&#xec;" horiz-adv-x="686" d="M-35 1475l389 122l219 -387h-327zM113 0v1120h460v-1120h-460z" />
<glyph unicode="&#xed;" horiz-adv-x="686" d="M113 0v1120h460v-1120h-460zM129 1210l219 387l389 -122l-280 -265h-328z" />
<glyph unicode="&#xee;" horiz-adv-x="686" d="M-76 1243l248 332h344l248 -332h-307l-113 168l-113 -168h-307zM113 0v1120h460v-1120h-460z" />
<glyph unicode="&#xef;" horiz-adv-x="686" d="M-55 1430q0 83 51.5 135.5t134.5 52.5t134.5 -52.5t51.5 -135.5q0 -82 -51.5 -134.5t-134.5 -52.5t-134.5 52.5t-51.5 134.5zM113 0v1120h460v-1120h-460zM371 1430q0 83 51.5 135.5t134.5 52.5t134.5 -52.5t51.5 -135.5q0 -82 -51.5 -134.5t-134.5 -52.5t-134.5 52.5 t-51.5 134.5z" />
<glyph unicode="&#xf0;" horiz-adv-x="1263" d="M18 465q0 206 126.5 329.5t338.5 123.5q86 0 167 -21.5t130 -58.5q-44 112 -151 219l-359 -123l-69 205l231 80q-121 80 -260 139l309 182q203 -69 355 -182l307 106l69 -207l-196 -67q217 -256 217 -569q0 -292 -177.5 -466.5t-473.5 -174.5q-257 0 -410.5 132 t-153.5 353zM459 487q0 -60 38 -95.5t101 -35.5q64 0 102.5 35t38.5 94t-38.5 94t-104.5 35q-63 0 -100 -34.5t-37 -92.5z" />
<glyph unicode="&#xf1;" horiz-adv-x="1396" d="M113 0v1120h460v-159q119 180 340 180q178 0 290 -117t112 -309v-715h-461v582q0 70 -36.5 111.5t-96.5 41.5q-67 0 -107.5 -49t-40.5 -131v-555h-460zM340 1257q0 191 59 283t181 92q43 0 82.5 -13t62.5 -28t46 -28t38 -13q49 0 49 76h277q0 -190 -58 -281.5t-180 -91.5 q-44 0 -83.5 13t-62.5 28t-46 28t-39 13q-48 0 -48 -78h-278z" />
<glyph unicode="&#xf2;" horiz-adv-x="1327" d="M31 561q0 263 172 419.5t461 156.5t460.5 -156.5t171.5 -419.5t-172 -420t-460 -157q-289 0 -461 157t-172 420zM285 1475l389 122l219 -387h-328zM496 555q0 -98 46 -157.5t122 -59.5t121.5 59t45.5 158t-45.5 158t-121.5 59t-122 -59.5t-46 -157.5z" />
<glyph unicode="&#xf3;" horiz-adv-x="1327" d="M31 561q0 263 172 419.5t461 156.5t460.5 -156.5t171.5 -419.5t-172 -420t-460 -157q-289 0 -461 157t-172 420zM449 1210l219 387l389 -122l-281 -265h-327zM496 555q0 -98 46 -157.5t122 -59.5t121.5 59t45.5 158t-45.5 158t-121.5 59t-122 -59.5t-46 -157.5z" />
<glyph unicode="&#xf4;" horiz-adv-x="1327" d="M31 561q0 263 172 419.5t461 156.5t460.5 -156.5t171.5 -419.5t-172 -420t-460 -157q-289 0 -461 157t-172 420zM244 1243l248 332h344l247 -332h-307l-112 168l-113 -168h-307zM496 555q0 -98 46 -157.5t122 -59.5t121.5 59t45.5 158t-45.5 158t-121.5 59t-122 -59.5 t-46 -157.5z" />
<glyph unicode="&#xf5;" horiz-adv-x="1327" d="M31 561q0 263 172 419.5t461 156.5t460.5 -156.5t171.5 -419.5t-172 -420t-460 -157q-289 0 -461 157t-172 420zM266 1257q0 191 59 283t181 92q43 0 82.5 -13t62.5 -28t46 -28t38 -13q49 0 49 76h277q0 -190 -58 -281.5t-180 -91.5q-44 0 -83.5 13t-62.5 28t-46 28 t-39 13q-47 0 -47 -78h-279zM496 555q0 -98 46 -157.5t122 -59.5t121.5 59t45.5 158t-45.5 158t-121.5 59t-122 -59.5t-46 -157.5z" />
<glyph unicode="&#xf6;" horiz-adv-x="1327" d="M31 561q0 263 172 419.5t461 156.5t460.5 -156.5t171.5 -419.5t-172 -420t-460 -157q-289 0 -461 157t-172 420zM264 1430q0 83 52 135.5t135 52.5t134.5 -52.5t51.5 -135.5q0 -82 -51.5 -134.5t-134.5 -52.5t-135 52.5t-52 134.5zM496 555q0 -98 46 -157.5t122 -59.5 t121.5 59t45.5 158t-45.5 158t-121.5 59t-122 -59.5t-46 -157.5zM690 1430q0 83 52 135.5t135 52.5t134.5 -52.5t51.5 -135.5q0 -82 -51.5 -134.5t-134.5 -52.5t-135 52.5t-52 134.5z" />
<glyph unicode="&#xf7;" horiz-adv-x="1064" d="M61 530v287h943v-287h-943zM328 303q0 84 51.5 136.5t134.5 52.5t134.5 -52.5t51.5 -136.5q0 -82 -51.5 -134t-134.5 -52t-134.5 52t-51.5 134zM328 1040q0 84 51.5 136.5t134.5 52.5t134.5 -52.5t51.5 -136.5q0 -82 -51.5 -134t-134.5 -52t-134.5 52t-51.5 134z" />
<glyph unicode="&#xf8;" horiz-adv-x="1327" d="M31 561q0 263 172 419.5t461 156.5q44 0 98 -7l84 256h180l-96 -292q173 -60 269.5 -199.5t96.5 -333.5q0 -263 -172 -420t-460 -157q-33 0 -95 4l-90 -273h-180l102 310q-175 62 -272.5 201.5t-97.5 334.5zM465 555q0 -112 49 -180l143 436q-88 -3 -140 -72t-52 -184z M670 299q88 3 140 72t52 184q0 109 -49 180z" />
<glyph unicode="&#xf9;" horiz-adv-x="1376" d="M82 406v714h461v-581q0 -70 33.5 -112t89.5 -42q63 0 100 49t37 131v555h461v-1120h-461v156q-115 -176 -330 -176q-173 0 -282 117t-109 309zM297 1475l389 122l219 -387h-327z" />
<glyph unicode="&#xfa;" horiz-adv-x="1376" d="M82 406v714h461v-581q0 -70 33.5 -112t89.5 -42q63 0 100 49t37 131v555h461v-1120h-461v156q-115 -176 -330 -176q-173 0 -282 117t-109 309zM461 1210l219 387l389 -122l-281 -265h-327z" />
<glyph unicode="&#xfb;" horiz-adv-x="1376" d="M82 406v714h461v-581q0 -70 33.5 -112t89.5 -42q63 0 100 49t37 131v555h461v-1120h-461v156q-115 -176 -330 -176q-173 0 -282 117t-109 309zM256 1243l248 332h344l248 -332h-308l-112 168l-113 -168h-307z" />
<glyph unicode="&#xfc;" horiz-adv-x="1376" d="M82 406v714h461v-581q0 -70 33.5 -112t89.5 -42q63 0 100 49t37 131v555h461v-1120h-461v156q-115 -176 -330 -176q-173 0 -282 117t-109 309zM276 1430q0 83 52 135.5t135 52.5t134.5 -52.5t51.5 -135.5q0 -82 -51.5 -134.5t-134.5 -52.5t-135 52.5t-52 134.5zM702 1430 q0 83 52 135.5t135 52.5t134.5 -52.5t51.5 -135.5q0 -82 -51.5 -134.5t-134.5 -52.5t-135 52.5t-52 134.5z" />
<glyph unicode="&#xfd;" horiz-adv-x="1277" d="M-41 -287l193 303q71 -65 149 -65q77 0 111 57l16 27l-465 1085h473l221 -639l183 639h458l-460 -1198q-70 -174 -190.5 -257t-301.5 -83q-211 0 -387 131zM424 1210l219 387l389 -122l-280 -265h-328z" />
<glyph unicode="&#xfe;" d="M123 -397v1917h461v-512q111 129 284 129q233 0 373.5 -159.5t140.5 -424.5q0 -260 -136 -414.5t-365 -154.5q-182 0 -297 131v-512h-461zM584 565q0 -98 45.5 -157.5t120.5 -59.5q76 0 122 59.5t46 157.5t-46 157.5t-122 59.5q-75 0 -120.5 -59.5t-45.5 -157.5z" />
<glyph unicode="&#xff;" horiz-adv-x="1277" d="M-41 -287l193 303q71 -65 149 -65q77 0 111 57l16 27l-465 1085h473l221 -639l183 639h458l-460 -1198q-70 -174 -190.5 -257t-301.5 -83q-211 0 -387 131zM240 1430q0 83 51.5 135.5t134.5 52.5t134.5 -52.5t51.5 -135.5q0 -82 -51.5 -134.5t-134.5 -52.5t-134.5 52.5 t-51.5 134.5zM666 1430q0 83 51.5 135.5t134.5 52.5t134.5 -52.5t51.5 -135.5q0 -82 -51.5 -134.5t-134.5 -52.5t-134.5 52.5t-51.5 134.5z" />
<glyph unicode="&#x104;" horiz-adv-x="1636" d="M-20 0l606 1436h487l584 -1436h-139q-78 -118 -78 -162q0 -31 28 -31q39 0 76 62l113 -131q-42 -77 -106 -116.5t-140 -39.5q-35 0 -67.5 8.5t-63 28t-48.5 56.5t-18 87q0 104 89 238h-152l-72 203h-538l-74 -203h-487zM664 543h299l-148 420z" />
<glyph unicode="&#x105;" horiz-adv-x="1265" d="M31 332q0 166 111.5 252.5t326.5 89.5h262v2q-3 58 -48.5 89.5t-129.5 31.5q-148 0 -346 -72l-103 307q301 109 558 109q247 0 384.5 -109t137.5 -307v-725h-97q-77 -116 -77 -162q0 -31 28 -31q39 0 76 62l113 -131q-42 -77 -106 -116.5t-140 -39.5q-35 0 -67.5 8.5 t-63 28t-48.5 56.5t-18 87q0 105 88 238h-141v123q-108 -146 -321 -146q-178 0 -278.5 96.5t-100.5 258.5zM463 371q0 -46 27.5 -72.5t78.5 -26.5q46 0 89.5 22.5t72.5 63.5v103h-166q-102 0 -102 -90z" />
<glyph unicode="&#x106;" horiz-adv-x="1409" d="M31 721q0 208 100 375t277.5 260.5t400.5 93.5q165 0 330.5 -71.5t275.5 -190.5l-274 -326q-64 88 -153.5 140.5t-172.5 52.5q-129 0 -213 -93t-84 -235q0 -145 84 -238.5t213 -93.5q77 0 166.5 44.5t159.5 119.5l274 -293q-120 -131 -289 -208.5t-335 -77.5 q-217 0 -391 95.5t-271.5 265t-97.5 380.5zM592 1526l219 387l389 -123l-280 -264h-328z" />
<glyph unicode="&#x107;" horiz-adv-x="1148" d="M31 555q0 264 161.5 423t430.5 159q183 0 322 -85t208 -239l-367 -156q-46 107 -143 107q-67 0 -107 -56.5t-40 -150.5q0 -95 40 -152t107 -57q101 0 137 121l373 -172q-61 -149 -202 -231t-333 -82q-267 0 -427 155.5t-160 415.5zM395 1210l219 387l390 -122l-281 -265 h-328z" />
<glyph unicode="&#x118;" d="M102 0v1436h1215v-361h-739v-176h671v-360h-671v-179h757v-360h-155q-78 -118 -78 -162q0 -31 28 -31q39 0 76 62l113 -131q-42 -77 -106 -116.5t-140 -39.5q-35 0 -67.5 8.5t-62.5 28t-48 56.5t-18 87q0 105 88 238h-863z" />
<glyph unicode="&#x119;" horiz-adv-x="1257" d="M31 555q0 265 163.5 423.5t434.5 158.5q293 0 454 -184.5t142 -495.5h-729q50 -133 186 -133q121 0 227 100l240 -236q-234 -254 -234 -350q0 -14 8.5 -22.5t20.5 -8.5q37 0 74 62l112 -131q-86 -156 -243 -156q-35 0 -67.5 8.5t-63 28t-48.5 56.5t-18 87q0 113 98 248 q-76 -26 -147 -26q-285 0 -447.5 154.5t-162.5 416.5zM485 670h279q4 69 -33.5 114t-97.5 45q-57 0 -95.5 -43t-52.5 -116z" />
<glyph unicode="&#x131;" horiz-adv-x="686" d="M113 0v1120h460v-1120h-460z" />
<glyph unicode="&#x141;" horiz-adv-x="1241" d="M-61 844l208 61v531h476v-394l266 78l78 -276l-344 -101v-348h598v-395h-1074v606l-131 -37z" />
<glyph unicode="&#x142;" horiz-adv-x="763" d="M-92 868l264 76v576h461v-443l145 43l78 -276l-223 -64v-780h-461v647l-186 -53z" />
<glyph unicode="&#x143;" horiz-adv-x="1599" d="M102 0v1436h398l567 -738v738h430v-1436h-397l-565 733v-733h-433zM586 1526l219 387l389 -123l-281 -264h-327z" />
<glyph unicode="&#x144;" horiz-adv-x="1396" d="M113 0v1120h460v-159q119 180 340 180q178 0 290 -117t112 -309v-715h-461v582q0 70 -36.5 111.5t-96.5 41.5q-67 0 -107.5 -49t-40.5 -131v-555h-460zM522 1210l219 387l389 -122l-280 -265h-328z" />
<glyph unicode="&#x152;" horiz-adv-x="2308" d="M31 715q0 205 100.5 369.5t280.5 258t405 93.5h1395v-361h-739v-176h671v-360h-671v-179h757v-360h-1413q-224 0 -403.5 91.5t-281 255t-101.5 368.5zM518 713q0 -147 84.5 -242.5t214.5 -95.5l180 2v676h-180q-130 0 -214.5 -96t-84.5 -244z" />
<glyph unicode="&#x153;" horiz-adv-x="2045" d="M31 561q0 263 172 419.5t461 156.5q248 0 387 -148q132 148 362 148q294 0 456.5 -184.5t143.5 -495.5h-737q50 -133 190 -133q123 0 232 100l239 -236q-188 -204 -512 -204q-244 0 -376 145q-142 -145 -385 -145q-289 0 -461 157t-172 420zM496 555q0 -98 46 -157.5 t122 -59.5t121.5 59t45.5 158t-45.5 158t-121.5 59t-122 -59.5t-46 -157.5zM1266 670h286q4 69 -34.5 114t-100.5 45q-60 0 -98.5 -43t-52.5 -116z" />
<glyph unicode="&#x15a;" horiz-adv-x="1359" d="M16 215l177 356q109 -91 272.5 -157t273.5 -66q115 0 115 74q0 33 -32 57.5t-84 38.5t-119 32t-136.5 36t-136.5 51.5t-119 76.5t-84 114t-32 161q0 215 166.5 341t447.5 126q168 0 335 -46t290 -124l-172 -360q-119 66 -262.5 117t-231.5 51t-88 -60q0 -28 25.5 -50 t68.5 -37t98.5 -29.5t117 -32t123.5 -39.5t117.5 -57t98.5 -79.5t68.5 -112.5t25.5 -151q0 -93 -32 -170t-87.5 -130t-132 -89.5t-165 -53.5t-187.5 -17q-190 0 -384 61t-335 168zM520 1526l219 387l389 -123l-280 -264h-328z" />
<glyph unicode="&#x15b;" horiz-adv-x="1130" d="M25 139l139 287q227 -139 414 -139q69 0 69 32q0 19 -31.5 34.5t-81.5 28.5t-110.5 29.5t-121.5 43.5t-111 63.5t-81.5 97.5t-31.5 138q0 177 134 282t359 105q267 0 521 -142l-152 -284q-249 123 -379 123q-63 0 -63 -37q0 -21 32 -37t83.5 -30t113 -31t123.5 -44.5 t113.5 -64t83.5 -97t32 -137.5q0 -173 -138 -276.5t-370 -103.5q-312 0 -546 159zM377 1210l219 387l389 -122l-280 -265h-328z" />
<glyph unicode="&#x178;" horiz-adv-x="1472" d="M-20 1436h473l288 -553l279 553h473l-514 -990v-446h-475v436zM338 1745q0 83 51.5 135.5t134.5 52.5t135 -52.5t52 -135.5q0 -82 -52 -134t-135 -52t-134.5 52t-51.5 134zM764 1745q0 83 51.5 135.5t134.5 52.5t135 -52.5t52 -135.5q0 -82 -52 -134t-135 -52t-134.5 52 t-51.5 134z" />
<glyph unicode="&#x179;" horiz-adv-x="1398" d="M41 0v297l670 774h-645v365h1277v-297l-669 -774h684v-365h-1317zM526 1526l219 387l390 -123l-281 -264h-328z" />
<glyph unicode="&#x17a;" horiz-adv-x="1163" d="M51 0v268l467 508h-446v344h1028v-268l-467 -508h487v-344h-1069zM367 1210l219 387l389 -122l-281 -265h-327z" />
<glyph unicode="&#x17b;" horiz-adv-x="1398" d="M41 0v297l670 774h-645v365h1277v-297l-669 -774h684v-365h-1317zM508 1755q0 103 65 168.5t168 65.5t168.5 -65.5t65.5 -168.5t-65.5 -168t-168.5 -65t-168 65t-65 168z" />
<glyph unicode="&#x17c;" horiz-adv-x="1163" d="M51 0v268l467 508h-446v344h1028v-268l-467 -508h487v-344h-1069zM348 1440q0 103 65.5 168t168.5 65t168 -65t65 -168t-65 -168.5t-168 -65.5t-168.5 65.5t-65.5 168.5z" />
<glyph unicode="&#x192;" horiz-adv-x="909" d="M-219 -338l110 315q47 -38 107 -38q39 -1 65.5 24t32.5 70l78 633h-154l35 290h156l25 203q22 175 155 278.5t334 102.5q93 0 185 -21.5t153 -58.5l-152 -315q-51 39 -108 39q-49 1 -81 -24t-38 -70l-16 -134h217l-35 -290h-217l-86 -703q-22 -175 -156 -278.5 t-336 -102.5q-75 0 -151 22t-123 58z" />
<glyph unicode="&#x2c6;" horiz-adv-x="716" d="M-61 1243l247 332h344l248 -332h-307l-113 168l-112 -168h-307z" />
<glyph unicode="&#x2da;" horiz-adv-x="716" d="M104 1440q0 106 74 180t180 74t180 -74t74 -180t-74 -180t-180 -74t-180 74t-74 180zM279 1440q0 -34 22.5 -57t56.5 -23t57 23t23 57t-23 57t-57 23t-56.5 -23t-22.5 -57z" />
<glyph unicode="&#x2dc;" horiz-adv-x="716" d="M-39 1257q0 191 59 283t181 92q43 0 82.5 -13t62.5 -28t46 -28t38 -13q49 0 49 76h277q0 -190 -58 -281.5t-180 -91.5q-44 0 -83.5 13t-62.5 28t-46.5 28t-38.5 13q-47 0 -47 -78h-279z" />
<glyph unicode="&#x3c0;" horiz-adv-x="1501" d="M-45 795q-2 141 106 233t275 92h1137l2 -319h-218v-801h-378v801h-76l-82 -801h-379l82 801h-27q-38 0 -62.5 -23.5t-23.5 -60.5q0 -47 37 -127l-315 -107q-35 72 -56.5 157.5t-21.5 154.5z" />
<glyph unicode="&#x2000;" horiz-adv-x="994" />
<glyph unicode="&#x2001;" horiz-adv-x="1989" />
<glyph unicode="&#x2002;" horiz-adv-x="994" />
<glyph unicode="&#x2003;" horiz-adv-x="1989" />
<glyph unicode="&#x2004;" horiz-adv-x="663" />
<glyph unicode="&#x2005;" horiz-adv-x="497" />
<glyph unicode="&#x2006;" horiz-adv-x="331" />
<glyph unicode="&#x2007;" horiz-adv-x="331" />
<glyph unicode="&#x2008;" horiz-adv-x="248" />
<glyph unicode="&#x2009;" horiz-adv-x="397" />
<glyph unicode="&#x200a;" horiz-adv-x="110" />
<glyph unicode="&#x2010;" horiz-adv-x="778" d="M102 489v287h574v-287h-574z" />
<glyph unicode="&#x2011;" horiz-adv-x="778" d="M102 489v287h574v-287h-574z" />
<glyph unicode="&#x2012;" horiz-adv-x="778" d="M102 489v287h574v-287h-574z" />
<glyph unicode="&#x2013;" horiz-adv-x="839" d="M0 428v287h840v-287h-840z" />
<glyph unicode="&#x2014;" horiz-adv-x="1249" d="M0 428v287h1249v-287h-1249z" />
<glyph unicode="&#x2018;" horiz-adv-x="542" d="M37 1014q0 86 55 164l178 258h213l-106 -260q80 -54 80 -160q0 -92 -59.5 -150.5t-151.5 -58.5q-88 0 -148.5 55t-60.5 152z" />
<glyph unicode="&#x2019;" horiz-adv-x="542" d="M37 807l106 260q-80 54 -80 160q0 92 59.5 150.5t151.5 58.5q88 0 148.5 -55t60.5 -152q0 -86 -55 -164l-178 -258h-213z" />
<glyph unicode="&#x201a;" horiz-adv-x="542" d="M37 -225l106 260q-80 54 -80 160q0 92 59 150t152 58q88 0 148.5 -54.5t60.5 -151.5q0 -86 -55 -164l-178 -258h-213z" />
<glyph unicode="&#x201c;" horiz-adv-x="989" d="M37 1014q0 86 55 164l178 258h213l-106 -260q80 -54 80 -160q0 -92 -59.5 -150.5t-151.5 -58.5q-88 0 -148.5 55t-60.5 152zM483 1014q0 84 56 164l178 258h213l-107 -260q80 -54 80 -160q0 -92 -59.5 -150.5t-151.5 -58.5q-88 0 -148.5 55t-60.5 152z" />
<glyph unicode="&#x201d;" horiz-adv-x="989" d="M37 807l106 260q-80 54 -80 160q0 92 59.5 150.5t151.5 58.5q88 0 148.5 -55t60.5 -152q0 -86 -55 -164l-178 -258h-213zM483 807l107 260q-80 54 -80 160q0 92 59.5 150.5t151.5 58.5q88 0 148.5 -55t60.5 -152q0 -84 -56 -164l-178 -258h-213z" />
<glyph unicode="&#x201e;" horiz-adv-x="989" d="M37 -225l106 260q-80 54 -80 160q0 92 59 150t152 58q88 0 148.5 -54.5t60.5 -151.5q0 -86 -55 -164l-178 -258h-213zM483 -225l107 260q-80 54 -80 160q0 92 59 150t152 58q88 0 148.5 -54.5t60.5 -151.5q0 -84 -56 -164l-178 -258h-213z" />
<glyph unicode="&#x2020;" horiz-adv-x="1245" d="M41 670v360h344v402h461v-402h358v-360h-358v-1049h-461v1049h-344z" />
<glyph unicode="&#x2021;" horiz-adv-x="1245" d="M41 35v360h344v275h-344v360h344v402h461v-402h358v-360h-358v-275h358v-360h-358v-414h-461v414h-344z" />
<glyph unicode="&#x2022;" horiz-adv-x="753" d="M61 582q0 138 88 225.5t226 87.5q141 0 229 -87.5t88 -225.5q0 -141 -88 -229.5t-229 -88.5q-138 0 -226 88.5t-88 229.5z" />
<glyph unicode="&#x2026;" horiz-adv-x="1525" d="M61 195q0 92 58.5 150t150.5 58q94 0 152.5 -58t58.5 -150q0 -94 -58.5 -152.5t-152.5 -58.5q-92 0 -150.5 58.5t-58.5 152.5zM553 195q0 92 58.5 150t150.5 58q94 0 152.5 -58t58.5 -150q0 -94 -58.5 -152.5t-152.5 -58.5q-92 0 -150.5 58.5t-58.5 152.5zM1044 195 q0 92 58.5 150t150.5 58q94 0 152.5 -58t58.5 -150q0 -94 -58.5 -152.5t-152.5 -58.5q-92 0 -150.5 58.5t-58.5 152.5z" />
<glyph unicode="&#x202f;" horiz-adv-x="397" />
<glyph unicode="&#x2030;" horiz-adv-x="3127" d="M51 1006q0 199 114.5 318.5t305.5 119.5q190 0 304 -119t114 -319q0 -201 -114 -322t-304 -121q-191 0 -305.5 121t-114.5 322zM340 1006q0 -91 35.5 -145t95.5 -54t95.5 54t35.5 145q0 89 -35.5 142.5t-95.5 53.5t-95.5 -53.5t-35.5 -142.5zM381 0l997 1436h428 l-997 -1436h-428zM1298 432q0 199 114.5 318.5t305.5 119.5q190 0 304 -119t114 -319q0 -201 -114 -321.5t-304 -120.5q-191 0 -305.5 120.5t-114.5 321.5zM1587 432q0 -91 35.5 -145t95.5 -54t95.5 54t35.5 145q0 89 -35.5 143t-95.5 54t-95.5 -54t-35.5 -143zM2238 432 q0 199 114.5 318.5t305.5 119.5q190 0 304 -119t114 -319q0 -201 -114 -321.5t-304 -120.5q-191 0 -305.5 120.5t-114.5 321.5zM2527 432q0 -91 35.5 -145t95.5 -54t95.5 54t35.5 145q0 89 -35.5 143t-95.5 54t-95.5 -54t-35.5 -143z" />
<glyph unicode="&#x2039;" horiz-adv-x="583" d="M-35 559l254 395h369l-217 -395l217 -399h-369z" />
<glyph unicode="&#x203a;" horiz-adv-x="583" d="M-4 160l217 395l-217 399h369l253 -399l-253 -395h-369z" />
<glyph unicode="&#x2044;" horiz-adv-x="307" d="M-559 0l997 1436h428l-997 -1436h-428z" />
<glyph unicode="&#x205f;" horiz-adv-x="497" />
<glyph unicode="&#x20ac;" horiz-adv-x="1585" d="M41 510v168h168l-2 43q0 35 2 51h-168v166h197q70 231 271.5 371.5t475.5 140.5q165 0 330.5 -71.5t275.5 -190.5l-274 -326q-64 88 -153.5 140.5t-172.5 52.5q-149 0 -233 -117h413v-166h-475q-2 -14 -2 -45q0 -33 2 -49h475v-168h-409q85 -115 229 -115 q77 0 166.5 44.5t159.5 119.5l274 -293q-120 -131 -289 -208.5t-335 -77.5q-271 0 -468.5 145.5t-262.5 384.5h-195z" />
<glyph unicode="&#x2122;" horiz-adv-x="1886" d="M-23 1174v262h746v-262h-209v-601h-330v601h-207zM784 573v863h357l162 -394l163 394h357v-863h-295v394l-111 -312h-227l-111 312v-394h-295z" />
<glyph unicode="&#x2202;" horiz-adv-x="1327" d="M41 485q0 212 133 342.5t352 130.5q175 0 277 -106q0 240 -258 240q-183 0 -307 -115l-181 332q98 67 238 107t278 40q310 0 496 -200t186 -533q0 -342 -174 -542.5t-477 -200.5q-255 0 -409 137t-154 368zM481 487q0 -131 140 -131q141 0 141 129t-144 129 q-137 0 -137 -127z" />
<glyph unicode="&#x220f;" horiz-adv-x="1503" d="M102 -397v1917h1299v-1917h-461v1556h-377v-1556h-461z" />
<glyph unicode="&#x2211;" horiz-adv-x="1271" d="M47 41l483 571l-456 582v332h1161v-396h-612l409 -516l-409 -501h632v-396h-1208v324z" />
<glyph unicode="&#x221a;" horiz-adv-x="1484" d="M-12 496v360h579l187 -729l344 1393h438l-539 -1850h-491l-254 826h-264z" />
<glyph unicode="&#x221e;" horiz-adv-x="1710" d="M31 606q0 202 123.5 334.5t312.5 132.5q89 0 164 -33.5t123 -80t96 -115.5q35 51 70 88.5t82 71.5t107.5 51.5t131.5 17.5q190 0 314 -132t124 -333q0 -203 -124 -335t-314 -132q-129 0 -218.5 61t-164.5 169q-73 -108 -164.5 -169t-226.5 -61q-189 0 -312.5 132 t-123.5 333zM338 606q0 -69 36.5 -113t92.5 -44q76 0 132.5 42t107.5 119q-106 156 -240 156q-56 0 -92.5 -45.5t-36.5 -114.5zM1001 604q52 -75 109 -115t131 -40q57 0 94 45t37 114t-37 113.5t-94 44.5q-76 0 -132 -42t-108 -120z" />
<glyph unicode="&#x222b;" horiz-adv-x="888" d="M-61 -242l51 293q87 -43 147 -43q97 0 138.5 49t41.5 166q0 84 -30.5 497t-30.5 486q0 301 103.5 428t347.5 127q107 0 223 -51l-41 -291q-71 25 -125 25q-92 0 -131 -44.5t-39 -150.5q0 -68 28.5 -488t28.5 -505q0 -302 -104 -430.5t-350 -128.5q-87 0 -146.5 14 t-111.5 47z" />
<glyph unicode="&#x2248;" horiz-adv-x="1064" d="M96 215q0 211 64 311.5t198 100.5q48 0 91.5 -14t69 -31t51 -31t42.5 -14q54 0 54 84h303q0 -211 -63.5 -311.5t-196.5 -100.5q-48 0 -91.5 14t-69 31t-51 31t-42.5 14q-54 0 -54 -84h-305zM96 707q0 210 64 310.5t198 100.5q48 0 91.5 -14t69 -31t51 -31t42.5 -14 q54 0 54 84h303q0 -211 -63.5 -311.5t-196.5 -100.5q-61 0 -113 23t-86.5 45.5t-54.5 22.5q-54 0 -54 -84h-305z" />
<glyph unicode="&#x2260;" horiz-adv-x="1064" d="M61 305v287h267l51 164h-318v286h408l84 269h344l-84 -269h191v-286h-281l-51 -164h332v-287h-422l-88 -278h-344l88 278h-177z" />
<glyph unicode="&#x2264;" horiz-adv-x="1064" d="M61 -33v287h943v-287h-943zM61 657v347l943 360v-303l-648 -230l648 -229v-303z" />
<glyph unicode="&#x2265;" horiz-adv-x="1064" d="M61 -33v287h943v-287h-943zM61 317v304l648 229l-648 229v305l943 -360v-346z" />
<glyph unicode="&#x25ca;" horiz-adv-x="987" d="M31 676l465 688l460 -688l-464 -694zM324 676l170 -256l170 256l-170 252z" />
<glyph unicode="&#x25fc;" horiz-adv-x="1116" d="M0 0v1116h1116v-1116h-1116z" />
</font>
</defs>
</svg>
